<?xml version="1.0" standalone="no"?>
<!DOCTYPE svg PUBLIC "-//W3C//DTD SVG 20010904//EN"
 "http://www.w3.org/TR/2001/REC-SVG-20010904/DTD/svg10.dtd">
<svg version="1.0" xmlns="http://www.w3.org/2000/svg"
 width="512.000000pt" height="512.000000pt" viewBox="0 0 512.000000 512.000000"
 preserveAspectRatio="xMidYMid meet">

<g transform="translate(0.000000,512.000000) scale(0.100000,-0.100000)"
fill="#000000" stroke="none">
<path d="M539 5109 c-126 -18 -257 -87 -353 -184 -70 -71 -117 -148 -153 -250
l-28 -80 0 -2035 0 -2035 28 -80 c85 -241 281 -404 524 -436 52 -6 746 -9
2058 -7 l1980 3 80 28 c105 37 181 85 254 158 73 73 121 149 158 254 l28 80 3
1980 c2 1312 -1 2006 -7 2058 -33 244 -205 448 -446 529 l-70 23 -2000 1
c-1100 1 -2025 -2 -2056 -7z m2996 -567 l60 -7 3 -322 2 -323 -239 0 c-213 0
-246 -2 -306 -21 -80 -24 -134 -73 -160 -145 -16 -42 -19 -91 -23 -336 l-4
-288 349 0 c193 0 352 -2 354 -5 3 -2 -16 -163 -41 -357 l-45 -353 -307 -3
-308 -2 0 -910 0 -910 -370 0 -370 0 0 910 0 910 -305 0 -305 0 0 360 0 360
304 0 304 0 5 343 c4 294 7 355 25 432 83 372 315 600 685 671 55 11 137 12
352 8 154 -3 307 -8 340 -12z"/>
</g>
</svg>
